<svg width="50" height="50" viewBox="0 0 50 50" fill="none" xmlns="http://www.w3.org/2000/svg">
<path d="M25.3309 49.3382C38.9715 49.3382 50 38.3097 50 24.6691C50 11.0285 38.9715 0 25.3309 0C11.6903 0 0.661765 11.0285 0.661765 24.6691C0.661765 38.3097 11.6903 49.3382 25.3309 49.3382ZM25.3309 2.90225C37.3752 2.90225 47.0978 12.6248 47.0978 24.6691C47.0978 36.7135 37.3752 46.436 25.3309 46.436C13.2865 46.436 3.56401 36.7135 3.56401 24.6691C3.56401 12.6248 13.2865 2.90225 25.3309 2.90225Z" fill="white"/>
<path d="M24.8954 38.7451L38.9713 24.6692L24.8954 10.5933L22.8638 12.6249L34.9082 24.6692L22.8638 36.7135L24.8954 38.7451Z" fill="white"/>
<path d="M36.9398 23.2179H12.2707V26.1202H36.9398V23.2179Z" fill="white"/>
</svg>
