<svg width="50" height="50" viewBox="0 0 50 50" fill="none" xmlns="http://www.w3.org/2000/svg">
<path d="M24.6691 49.3382C11.0285 49.3382 0 38.3097 0 24.6691C0 11.0285 11.0285 0 24.6691 0C38.3097 0 49.3382 11.0285 49.3382 24.6691C49.3382 38.3097 38.3097 49.3382 24.6691 49.3382ZM24.6691 2.90225C12.6248 2.90225 2.90225 12.6248 2.90225 24.6691C2.90225 36.7135 12.6248 46.436 24.6691 46.436C36.7135 46.436 46.436 36.7135 46.436 24.6691C46.436 12.6248 36.7135 2.90225 24.6691 2.90225Z" fill="#FF0000"/>
<path d="M25.1046 38.7451L11.0287 24.6692L25.1046 10.5933L27.1362 12.6249L15.0918 24.6692L27.1362 36.7135L25.1046 38.7451Z" fill="#FF0000"/>
<path d="M13.0602 23.2179H37.7293V26.1202H13.0602V23.2179Z" fill="#FF0000"/>
</svg>
