<svg width="22" height="17" viewBox="0 0 22 17" fill="none" xmlns="http://www.w3.org/2000/svg">
<path d="M21.6497 2C20.8609 2.35 20.0107 2.58 19.1297 2.69C20.0312 2.16 20.7278 1.32 21.0556 0.31C20.2053 0.81 19.2629 1.16 18.2692 1.36C17.46 0.5 16.3229 0 15.0322 0C12.6248 0 10.658 1.92 10.658 4.29C10.658 4.63 10.699 4.96 10.7707 5.27C7.12387 5.09 3.87656 3.38 1.71509 0.79C1.33607 1.42 1.12095 2.16 1.12095 2.94C1.12095 4.43 1.88924 5.75 3.07753 6.5C2.35021 6.5 1.67412 6.3 1.07997 6V6.03C1.07997 8.11 2.59607 9.85 4.60387 10.24C3.95925 10.4122 3.28251 10.4362 2.6268 10.31C2.90503 11.1625 3.44993 11.9084 4.18491 12.4429C4.91989 12.9775 5.80799 13.2737 6.72436 13.29C5.17101 14.4904 3.24553 15.1393 1.26436 15.13C0.916068 15.13 0.567775 15.11 0.219482 15.07C2.16582 16.29 4.48095 17 6.95997 17C15.0322 17 19.4678 10.46 19.4678 4.79C19.4678 4.6 19.4678 4.42 19.4575 4.23C20.318 3.63 21.0556 2.87 21.6497 2Z" fill="white"/>
</svg>
