<svg width="18" height="17" viewBox="0 0 18 17" fill="none" xmlns="http://www.w3.org/2000/svg">
<path d="M3.77755 1.88973C3.77729 2.39067 3.57806 2.87099 3.22367 3.22502C2.86928 3.57906 2.38876 3.77782 1.88783 3.77757C1.38689 3.77732 0.906577 3.57808 0.552541 3.22369C0.198504 2.8693 -0.00025023 2.38878 2.36438e-07 1.88784C0.000250703 1.3869 0.199486 0.906583 0.553877 0.552544C0.908267 0.198506 1.38878 -0.000250232 1.88972 2.36439e-07C2.39065 0.000250705 2.87097 0.199487 3.225 0.55388C3.57904 0.908273 3.7778 1.38879 3.77755 1.88973ZM3.83421 5.17621H0.0566634V17H3.83421V5.17621ZM9.80273 5.17621H6.04407V17H9.76495V10.7953C9.76495 7.33887 14.2697 7.01778 14.2697 10.7953V17H18V9.51097C18 3.68407 11.3326 3.90128 9.76495 6.76279L9.80273 5.17621Z" fill="white"/>
</svg>
